<svg width="24" height="25" viewBox="0 0 24 25" fill="none" xmlns="http://www.w3.org/2000/svg">
<rect width="24" height="25" fill="#E5E5E5"/>
<g id="Sign-In-Form-Desktop-Layout-1440x900">
<g clip-path="url(#clip0_8_2)">
<rect x="-1032" y="-827.619" width="1440" height="900" rx="24" fill="white"/>
<g id="Sign-In-Form-Desktop">
<g id="Frame 28986">
<rect width="456" height="900.5" transform="translate(-48 -827.869)" fill="white"/>
<g id="Bottom-Panel">
<g id="Frame 28987">
<g id="Figma">
<g id="Figma_2">
<g id="Color">
<g id="Taobao">
<g id="back">
<g id="path0_fill-link">
<path id="path0_fill" d="M0 12.6306C0 6.00322 5.3726 0.630615 12 0.630615C18.6274 0.630615 24 6.00322 24 12.6306C24 19.258 18.6274 24.6306 12 24.6306C5.3726 24.6306 0 19.258 0 12.6306Z" fill="#333333"/>
</g>
</g>
</g>
</g>
<g id="Group">
<g id="5">
<g id="path1_fill-link">
<path id="path1_fill" d="M9.59995 19.8308C10.9254 19.8308 12 18.7562 12 17.4308V15.0308H9.59995C8.27447 15.0308 7.19995 16.1053 7.19995 17.4308C7.19995 18.7562 8.27447 19.8308 9.59995 19.8308Z" fill="#0ACF83"/>
</g>
</g>
<g id="4">
<g id="path2_fill-link">
<path id="path2_fill" d="M7.19995 12.6307C7.19995 11.3052 8.27447 10.2307 9.59995 10.2307H12V15.0307H9.59995C8.27447 15.0307 7.19995 13.9562 7.19995 12.6307Z" fill="#A259FF"/>
</g>
</g>
<g id="3">
<g id="path2_fill-link_2">
<path id="path2_fill_2" d="M7.19995 7.83066C7.19995 6.50518 8.27447 5.43066 9.59995 5.43066H12V10.2307H9.59995C8.27447 10.2307 7.19995 9.15615 7.19995 7.83066Z" fill="#F24E1E"/>
</g>
</g>
<g id="2">
<g id="path3_fill-link">
<path id="path3_fill" d="M12 5.43066H14.4C15.7255 5.43066 16.8 6.50518 16.8 7.83066C16.8 9.15615 15.7255 10.2307 14.4 10.2307H12V5.43066Z" fill="#FF7262"/>
</g>
</g>
<g id="1">
<g id="path4_fill-link">
<path id="path4_fill" d="M16.8 12.6307C16.8 13.9562 15.7255 15.0307 14.4 15.0307C13.0745 15.0307 12 13.9562 12 12.6307C12 11.3052 13.0745 10.2307 14.4 10.2307C15.7255 10.2307 16.8 11.3052 16.8 12.6307Z" fill="#1ABCFE"/>
</g>
</g>
</g>
</g>
</g>
</g>
</g>
</g>
</g>
</g>
</g>
<defs>
<clipPath id="clip0_8_2">
<rect x="-1032" y="-827.619" width="1440" height="900" rx="24" fill="white"/>
</clipPath>
</defs>
</svg>
