<svg width="10" height="15" viewBox="0 0 10 15" fill="none" xmlns="http://www.w3.org/2000/svg">
<path d="M2.59995 14.8308C3.92544 14.8308 4.99995 13.7562 4.99995 12.4308V10.0308H2.59995C1.27447 10.0308 0.199951 11.1053 0.199951 12.4308C0.199951 13.7562 1.27447 14.8308 2.59995 14.8308Z" fill="#0ACF83"/>
<path d="M0.199951 7.63071C0.199951 6.30523 1.27447 5.23071 2.59995 5.23071H4.99995V10.0307H2.59995C1.27447 10.0307 0.199951 8.9562 0.199951 7.63071Z" fill="#A259FF"/>
<path d="M0.199951 2.83066C0.199951 1.50518 1.27447 0.430664 2.59995 0.430664H4.99995V5.23066H2.59995C1.27447 5.23066 0.199951 4.15615 0.199951 2.83066Z" fill="#F24E1E"/>
<path d="M5 0.430664H7.4C8.72549 0.430664 9.8 1.50518 9.8 2.83066C9.8 4.15615 8.72549 5.23066 7.4 5.23066H5V0.430664Z" fill="#FF7262"/>
<path d="M9.8 7.63071C9.8 8.9562 8.72549 10.0307 7.4 10.0307C6.07452 10.0307 5 8.9562 5 7.63071C5 6.30523 6.07452 5.23071 7.4 5.23071C8.72549 5.23071 9.8 6.30523 9.8 7.63071Z" fill="#1ABCFE"/>
</svg>
